Coordinates
version=1
nRows=17
nColumns=24
inDegrees=yes

Units are S.I. units (second, meters, Newtons, ...)
Angles are in degrees.

endheader
time	pelvis_tilt	pelvis_list	pelvis_rotation	pelvis_tx	pelvis_ty	pelvis_tz	hip_flexion_r	hip_adduction_r	hip_rotation_r	knee_angle_r	ankle_angle_r	subtalar_angle_r	mtp_angle_r	hip_flexion_l	hip_adduction_l	hip_rotation_l	knee_angle_l	ankle_angle_l	subtalar_angle_l	mtp_angle_l	lumbar_extension	lumbar_bending	lumbar_rotation
      1.93000000	     23.93932209	     -5.43470043	      8.71450624	      0.17118147	      0.85596896	      0.01853866	    -23.27102947	     13.03761611	    -18.16712733	     -4.52709648	     24.75437026	     17.71373937	     32.12600262	     -7.06405643	    -12.04352763	     -6.33169972	    -67.76386154	     16.70013889	     -3.36943783	     50.90690421	    -37.85533323	     11.79442663	     -7.29397925
      1.93500000	     23.93996109	     -5.23341313	      8.64135667	      0.17650539	      0.85648880	      0.01879236	    -23.83891087	     12.89133780	    -18.05914130	     -4.23427972	     24.82242574	     17.80357474	     32.00511968	     -6.60112901	    -11.64079372	     -6.44457885	    -67.01123563	     17.34518097	     -2.86504749	     50.73059790	    -37.84841030	     11.58364671	     -7.31715378
      1.94000000	     23.92422223	     -5.02930727	      8.57138092	      0.18184005	      0.85696534	      0.01902293	    -24.38086009	     12.73847313	    -17.96693321	     -3.95975108	     24.90608413	     17.87110768	     31.87372107	     -6.13994726	    -11.22655040	     -6.55444507	    -66.15844625	     17.96502946	     -2.37896491	     50.51448382	    -37.82135351	     11.37130136	     -7.35493262
      1.94500000	     23.87868318	     -4.85785584	      8.51196881	      0.18717049	      0.85733789	      0.01919124	    -24.87482673	     12.60862091	    -17.87846076	     -3.71836619	     25.06391621	     18.03772088	     30.93965903	     -5.64746200	    -10.83277029	     -6.63842839	    -65.26550445	     18.75074811	     -1.72161465	     48.45018457	    -37.75811925	     11.19684116	     -7.37753806
      1.95000000	     23.86875142	     -4.63463178	      8.44652134	      0.19251605	      0.85777233	      0.01935947	    -25.41976929	     12.43361742	    -17.82182825	     -3.45430919	     25.14571544	     18.08463353	     30.91012810	     -5.24321421	    -10.38196589	     -6.73730286	    -64.20044650	     19.24779667	     -1.36043756	     48.46712787	    -37.73404125	     10.96929282	     -7.44061120
      1.95500000	     23.85563725	     -4.42544778	      8.37771584	      0.19788062	      0.85816119	      0.01952449	    -25.95900355	     12.26948301	    -17.77188629	     -3.19383244	     25.21654417	     18.15780789	     30.87149442	     -4.85909222	     -9.94682176	     -6.84238791	    -63.04903082	     19.76042846	     -0.99734312	     48.43792900	    -37.70555498	     10.75019183	     -7.48317811
      1.96000000	     23.84632055	     -4.22547938	      8.31114784	      0.20323601	      0.85851537	      0.01966395	    -26.49319582	     12.11229725	    -17.73831248	     -2.94762410	     25.28852915	     18.23803141	     30.82623342	     -4.50097633	     -9.51838565	     -6.94081694	    -61.80553336	     20.24297717	     -0.68056255	     48.35887743	    -37.68004121	     10.54133442	     -7.52328187
      1.96500000	     23.83620366	     -4.02588734	      8.23944965	      0.20858311	      0.85885040	      0.01979476	    -27.02089817	     11.95160154	    -17.71715076	     -2.71197018	     25.35651122	     18.33079869	     30.77456232	     -4.17067368	     -9.08474882	     -7.03601243	    -60.46171589	     20.69095787	     -0.41972366	     48.22730713	    -37.65593808	     10.32869982	     -7.55976558
      1.97000000	     23.83988399	     -3.83183169	      8.16495792	      0.21391976	      0.85915229	      0.01990014	    -27.55535032	     11.79288426	    -17.71879238	     -2.49250370	     25.42852753	     18.44054002	     30.71742303	     -3.88102205	     -8.65727534	     -7.13526924	    -59.03104929	     21.11485174	     -0.21796355	     48.04950723	    -37.64928525	     10.12195253	     -7.58556008
      1.97500000	     23.83752667	     -3.64446515	      8.08559158	      0.21925625	      0.85942022	      0.02000267	    -28.07363921	     11.63706318	    -17.74434289	     -2.28959506	     25.50190031	     18.56704954	     30.65529371	     -3.61258592	     -8.23400409	     -7.23211045	    -57.51067976	     21.50438595	     -0.08076414	     47.82477779	    -37.63650332	      9.91550729	     -7.59909984
      1.98000000	     23.84318420	     -3.46306465	      7.99537355	      0.22458034	      0.85966434	      0.02009285	    -28.59167727	     11.47946207	    -17.79066225	     -2.10532136	     25.57592226	     18.71315834	     30.58893008	     -3.38367461	     -7.81684661	     -7.33622990	    -55.89861088	     21.87214493	      0.00684078	     47.55578983	    -37.63806828	      9.71127943	     -7.61315071
      1.98500000	     23.84172728	     -3.28903119	      7.89321522	      0.22990340	      0.85987913	      0.02021526	    -29.09083655	     11.32443741	    -17.85606759	     -1.94214678	     25.64943988	     18.87534703	     30.51871251	     -3.17980829	     -7.40747777	     -7.44353850	    -54.19112495	     22.21408582	      0.04053181	     47.25300061	    -37.63308501	      9.49845147	     -7.61397270
      1.99000000	     23.84311085	     -3.13171374	      7.79446946	      0.23521469	      0.86003954	      0.02030067	    -29.58588162	     11.18500372	    -17.92926489	     -1.78490297	     25.74422936	     19.01756011	     30.45834060	     -2.99742484	     -7.02187094	     -7.55868463	    -52.42165072	     22.52519630	      0.05020571	     46.97547319	    -37.63283908	      9.30845753	     -7.61376840
      1.99500000	     23.84956814	     -2.97966598	      7.67589910	      0.24050070	      0.86018222	      0.02040699	    -30.07592296	     11.04002255	    -18.01062782	     -1.64671648	     25.82673453	     19.18146410	     30.40154737	     -2.85780292	     -6.64188747	     -7.68666523	    -50.55191626	     22.81787333	      0.02965320	     46.69651700	    -37.64583631	      9.10973608	     -7.59571194
      2.00000000	     23.86400992	     -2.83435992	      7.54729997	      0.24578840	      0.86031003	      0.02050869	    -30.56376982	     10.89368488	    -18.10817987	     -1.53305927	     25.90605920	     19.36857773	     30.34113821	     -2.76200950	     -6.27502844	     -7.83845767	    -48.59529220	     23.07377581	     -0.00680878	     46.39727247	    -37.66869454	      8.91254143	     -7.56449039
      2.00500000	     23.87219611	     -2.69959409	      7.40680388	      0.25105720	      0.86039188	      0.02061811	    -31.03868688	     10.75037573	    -18.20354452	     -1.42219547	     25.99811248	     19.54150316	     30.28672519	     -2.68860934	     -5.92120599	     -8.00083630	    -46.56233729	     23.31272541	     -0.03375132	     46.12357909	    -37.68983563	      8.71723933	     -7.53375181
      2.01000000	     23.89403916	     -2.57150248	      7.25389494	      0.25631196	      0.86045858	      0.02072870	    -31.52052900	     10.60568291	    -18.30585412	     -1.32813633	     26.08663531	     19.73026260	     30.23333872	     -2.66735887	     -5.57975445	     -8.18859083	    -44.43802059	     23.51761265	     -0.05309453	     45.85594202	    -37.73200326	      8.52166078	     -7.49393024
